<?xml version="1.0" encoding="utf-8"?>
<!-- Generator: Adobe Illustrator 19.2.0, SVG Export Plug-In . SVG Version: 6.00 Build 0)  -->
<svg version="1.1" id="Layer_1" xmlns="http://www.w3.org/2000/svg" xmlns:xlink="http://www.w3.org/1999/xlink" x="0px" y="0px"
	 width="30px" height="35.5px" viewBox="0 0 30 35.5" style="enable-background:new 0 0 30 35.5;" xml:space="preserve">
<style type="text/css">
	.st0{fill:#FFFFFF;}
</style>
<g>
	<g>
		<polygon class="st0" points="10.9,33.8 13.6,35.5 13.6,19.1 10.9,17.5 		"/>
		<polygon class="st0" points="16.4,35.5 30,27.2 30,24 16.4,32.3 		"/>
		<g>
			<polygon class="st0" points="12.4,1.6 26,9.8 28.6,8.2 15,0 			"/>
			<polygon class="st0" points="5.5,30.5 8.2,32.2 8.2,15.8 5.5,14.2 			"/>
			<polygon class="st0" points="16.4,28.9 30,20.6 30,17.4 16.4,25.7 			"/>
			<polygon class="st0" points="6.9,5 20.5,13.2 23.2,11.6 9.5,3.4 			"/>
			<polygon class="st0" points="2.7,12.5 0,10.9 0,27.3 2.7,28.9 			"/>
			<polygon class="st0" points="16.4,22.4 30,14.1 30,10.9 16.4,19.2 			"/>
			<polygon class="st0" points="1.4,8.2 15,16.3 17.7,14.8 4,6.6 			"/>
		</g>
	</g>
</g>
</svg>
